name rise37.2698peak67.6939fall79.5734.mot
datacolumns 19
datarows 17
range 8.10663600000000 8.13330300000000
endheader
time	ground_force1_vx	ground_force1_vy	ground_force1_vz	ground_force1_px	ground_force1_py	ground_force1_pz	ground_force2_vx	ground_force2_vy	ground_force2_vz	ground_force2_px	ground_force2_py	ground_force2_pz	ground_torque1_x	ground_torque1_y	ground_torque1_z	ground_torque2_x	ground_torque2_y	ground_torque2_z	
8.10663600000000	-7.36942800000000	42.58809800000000	-12.99825300000000	0.28647000000000	0.00000000000000	0.06900500000000	-60.39056500000000	767.40309600000001	-49.85495700000000	0.08727100000000	0.00000000000000	-0.10552400000000	0.00000000000000	-8.32767500000000	0.00000000000000	0.00000000000000	-18.69890800000000	0.00000000000000	
8.10830500000000	-7.95167300000000	49.98061800000000	-14.59414000000000	0.29260000000000	0.00000000000000	0.07022300000000	-61.03739200000000	764.32353200000000	-49.47747400000000	0.08636500000000	0.00000000000000	-0.10543300000000	0.00000000000000	-9.46428000000000	0.00000000000000	0.00000000000000	-18.71546400000000	0.00000000000000	
8.10997400000000	-8.35938700000000	57.48580700000000	-16.03753800000000	0.29823100000000	0.00000000000000	0.07132500000000	-61.70171300000000	761.15666599999997	-49.08469700000000	0.08546100000000	0.00000000000000	-0.10533700000000	0.00000000000000	-10.52297900000000	0.00000000000000	0.00000000000000	-18.73557600000000	0.00000000000000	
8.11163600000000	-8.57228300000000	65.00951100000000	-17.29458500000000	0.30344100000000	0.00000000000000	0.07232700000000	-62.38272100000000	757.89950599999997	-48.67641000000000	0.08456100000000	0.00000000000000	-0.10523600000000	0.00000000000000	-11.47912200000000	0.00000000000000	0.00000000000000	-18.75910700000000	0.00000000000000	
8.11330200000000	-8.57928300000000	72.48048799999999	-18.34322900000000	0.30828900000000	0.00000000000000	0.07324400000000	-63.07950300000000	754.54893400000003	-48.25240600000000	0.08366500000000	0.00000000000000	-0.10513100000000	0.00000000000000	-12.31543300000000	0.00000000000000	0.00000000000000	-18.78589700000000	0.00000000000000	
8.11497300000000	-8.37825000000000	79.85266799999999	-19.17333900000000	0.31282200000000	0.00000000000000	0.07408900000000	-63.79104100000000	751.10171600000001	-47.81249000000000	0.08277600000000	0.00000000000000	-0.10502100000000	0.00000000000000	-13.02233300000000	0.00000000000000	0.00000000000000	-18.81576600000000	0.00000000000000	
8.11663400000000	-7.97504300000000	87.10494600000000	-19.78582000000000	0.31708200000000	0.00000000000000	0.07486900000000	-64.51620500000000	747.55451200000005	-47.35648000000000	0.08189300000000	0.00000000000000	-0.10490600000000	0.00000000000000	-13.59757300000000	0.00000000000000	0.00000000000000	-18.84850800000000	0.00000000000000	
8.11830600000000	-7.38207600000000	94.23895700000000	-20.19097300000000	0.32109900000000	0.00000000000000	0.07559400000000	-65.25376300000001	743.90388800000005	-46.88420900000000	0.08101800000000	0.00000000000000	-0.10478600000000	0.00000000000000	-14.04533500000000	0.00000000000000	0.00000000000000	-18.88389600000000	0.00000000000000	
8.11996900000000	-6.61659000000000	101.27535000000000	-20.40636900000000	0.32490100000000	0.00000000000000	0.07627000000000	-66.00237199999999	740.14633100000003	-46.39553000000000	0.08015300000000	0.00000000000000	-0.10466200000000	0.00000000000000	-14.37494800000000	0.00000000000000	0.00000000000000	-18.92168200000000	0.00000000000000	
8.12163800000000	-5.69882300000000	108.24914400000000	-20.45449100000000	0.32850900000000	0.00000000000000	0.07690300000000	-66.76058700000000	736.27826200000004	-45.89031500000000	0.07929800000000	0.00000000000000	-0.10453300000000	0.00000000000000	-14.59941200000000	0.00000000000000	0.00000000000000	-18.96159200000000	0.00000000000000	
8.12330100000000	-4.65025800000000	115.20470500000000	-20.36039000000000	0.33194300000000	0.00000000000000	0.07749600000000	-67.52685600000000	732.29604800000004	-45.36846100000000	0.07845500000000	0.00000000000000	-0.10439800000000	0.00000000000000	-14.73385600000000	0.00000000000000	0.00000000000000	-19.00333400000000	0.00000000000000	
8.12497300000000	-3.49206300000000	122.19081000000000	-20.14952500000000	0.33521600000000	0.00000000000000	0.07805500000000	-68.29952800000000	728.19602099999997	-44.82989100000000	0.07762500000000	0.00000000000000	-0.10425900000000	0.00000000000000	-14.79410100000000	0.00000000000000	0.00000000000000	-19.04659300000000	0.00000000000000	
8.12663700000000	-2.24382900000000	129.25619900000001	-19.84595500000000	0.33834300000000	0.00000000000000	0.07858300000000	-69.07684800000000	723.97449500000005	-44.27455300000000	0.07680700000000	0.00000000000000	-0.10411500000000	0.00000000000000	-14.79540000000000	0.00000000000000	0.00000000000000	-19.09103000000000	0.00000000000000	
8.12830100000000	-0.92264200000000	136.44585000000001	-19.47093200000000	0.34133500000000	0.00000000000000	0.07908300000000	-69.85696799999999	719.62777900000003	-43.70243000000000	0.07600500000000	0.00000000000000	-0.10396600000000	0.00000000000000	-14.75144000000000	0.00000000000000	0.00000000000000	-19.13629100000000	0.00000000000000	
8.12998400000000	0.45749000000000	143.79816600000001	-19.04196200000000	0.34420000000000	0.00000000000000	0.07955600000000	-70.63794400000000	715.15220099999999	-43.11353400000000	0.07521700000000	0.00000000000000	-0.10381100000000	0.00000000000000	-14.67363600000000	0.00000000000000	0.00000000000000	-19.18199800000000	0.00000000000000	
8.13163400000000	1.88588300000000	151.34310800000000	-18.57231000000000	0.34694700000000	0.00000000000000	0.08000700000000	-71.41774300000000	710.54412300000001	-42.50791300000000	0.07444600000000	0.00000000000000	-0.10365200000000	0.00000000000000	-14.57071400000000	0.00000000000000	0.00000000000000	-19.22775700000000	0.00000000000000	
8.13330300000000	3.35511900000000	159.10125600000001	-18.07090700000000	0.34958300000000	0.00000000000000	0.08043500000000	-72.19424600000001	705.79996600000004	-41.88565300000000	0.07369200000000	0.00000000000000	-0.10348800000000	0.00000000000000	-14.44858400000000	0.00000000000000	0.00000000000000	-19.27315200000000	0.00000000000000	
